# xmcd CD database file
#
# Track frame offsets:
#	150
#	7425
#	22500
#	32175
#	53984
#	67949
#	80924
#	99524
#	110624
#	121724
#	138299
#	145949
#
# Disc length: 2159 seconds
#
# Revision: 0
# Processed by: cddbd v1.4PL0 Copyright (c) Steve Scherf et al.
# Submitted via: CDex 1.51
#
DISCID=9f086d0c
DTITLE=HOM Band - Hymns
DYEAR=1900
DGENRE=Country
TTITLE0=House of Mercy
TTITLE1=Church in St Paul
TTITLE2=Nothing But the Blood
TTITLE3=Sinner Friend
TTITLE4=Meet You in the Morning
TTITLE5=On the wings of a Dove
TTITLE6=The Royal Telephone
TTITLE7=Build me a Cabin in Glory Land
TTITLE8=Something Got a Hold of Me
TTITLE9=Lead Me on Home
TTITLE10=An Evening Prayer
TTITLE11=Just a Closer Walk with Thee
EXTD=
EXTT0=
EXTT1=
EXTT2=
EXTT3=
EXTT4=
EXTT5=
EXTT6=
EXTT7=
EXTT8=
EXTT9=
EXTT10=
EXTT11=
PLAYORDER=
